<svg width="658" height="220" viewBox="0 0 658 220" fill="none" xmlns="http://www.w3.org/2000/svg">
<path d="M50 50H110" stroke="#1434CB" stroke-width="6" stroke-linecap="round"/>
<path d="M110 50H170" stroke="#1434CB" stroke-width="6" stroke-linecap="round"/>
<path d="M50 110H110" stroke="url(#paint0_linear_37_30)" stroke-width="4" stroke-linecap="round"/>
<path d="M110 50L110 110" stroke="url(#paint1_linear_37_30)" stroke-width="4" stroke-linecap="round"/>
<path d="M109.99 170L109.99 110" stroke="url(#paint2_linear_37_30)" stroke-width="4" stroke-linecap="round"/>
<path d="M110 110H170" stroke="url(#paint3_linear_37_30)" stroke-width="4" stroke-linecap="round"/>
<path d="M50 170H110" stroke="#1434CB" stroke-width="6" stroke-linecap="round"/>
<path d="M110 170H170" stroke="#1434CB" stroke-width="6" stroke-linecap="round"/>
<path d="M50 50V110" stroke="#1434CB" stroke-width="6" stroke-linecap="round"/>
<path d="M50 110V170" stroke="#1434CB" stroke-width="6" stroke-linecap="round"/>
<path d="M170 50V110" stroke="#1434CB" stroke-width="6" stroke-linecap="round"/>
<path d="M170 110V170" stroke="#1434CB" stroke-width="6" stroke-linecap="round"/>
<path d="M110 110L170 50" stroke="url(#paint4_linear_37_30)" stroke-width="4" stroke-linecap="round"/>
<path d="M110 110L80 80L50 50" stroke="url(#paint5_linear_37_30)" stroke-width="4" stroke-linecap="round"/>
<path d="M50 170L110 110" stroke="url(#paint6_linear_37_30)" stroke-width="4" stroke-linecap="round"/>
<path d="M110 110L140 140L170 170" stroke="url(#paint7_linear_37_30)" stroke-width="4" stroke-linecap="round"/>
<path d="M50 68C59.9411 68 68 59.9411 68 50C68 40.0589 59.9411 32 50 32C40.0589 32 32 40.0589 32 50C32 59.9411 40.0589 68 50 68Z" fill="#1434CB"/>
<path d="M170 68C179.941 68 188 59.9411 188 50C188 40.0589 179.941 32 170 32C160.059 32 152 40.0589 152 50C152 59.9411 160.059 68 170 68Z" fill="#F7B500"/>
<path d="M50 188C59.9411 188 68 179.941 68 170C68 160.059 59.9411 152 50 152C40.0589 152 32 160.059 32 170C32 179.941 40.0589 188 50 188Z" fill="#1434CB"/>
<path d="M170 188C179.941 188 188 179.941 188 170C188 160.059 179.941 152 170 152C160.059 152 152 160.059 152 170C152 179.941 160.059 188 170 188Z" fill="#1434CB"/>
<path d="M110 130C121.046 130 130 121.046 130 110C130 98.9543 121.046 90 110 90C98.9543 90 90 98.9543 90 110C90 121.046 98.9543 130 110 130Z" fill="#F7B600"/>
<path d="M110 60C115.523 60 120 55.5228 120 50C120 44.4772 115.523 40 110 40C104.477 40 100 44.4772 100 50C100 55.5228 104.477 60 110 60Z" fill="#1434CB"/>
<path d="M50 120C55.5228 120 60 115.523 60 110C60 104.477 55.5228 100 50 100C44.4772 100 40 104.477 40 110C40 115.523 44.4772 120 50 120Z" fill="#1434CB"/>
<path d="M170 120C175.523 120 180 115.523 180 110C180 104.477 175.523 100 170 100C164.477 100 160 104.477 160 110C160 115.523 164.477 120 170 120Z" fill="#1434CB"/>
<path d="M110 180C115.523 180 120 175.523 120 170C120 164.477 115.523 160 110 160C104.477 160 100 164.477 100 170C100 175.523 104.477 180 110 180Z" fill="#1434CB"/>
<path d="M50 68C59.9411 68 68 59.9411 68 50C68 40.0589 59.9411 32 50 32C40.0589 32 32 40.0589 32 50C32 59.9411 40.0589 68 50 68Z" fill="#1434CB"/>
<path d="M110 60C115.523 60 120 55.5228 120 50C120 44.4772 115.523 40 110 40C104.477 40 100 44.4772 100 50C100 55.5228 104.477 60 110 60Z" fill="#1434CB"/>
<path d="M50 50H110" stroke="#1434CB" stroke-width="6" stroke-linecap="round"/>
<path d="M110 50H170" stroke="#1434CB" stroke-width="6" stroke-linecap="round"/>
<path d="M50 110H110" stroke="url(#paint8_linear_37_30)" stroke-width="4" stroke-linecap="round"/>
<path d="M110 50L110 110" stroke="url(#paint9_linear_37_30)" stroke-width="4" stroke-linecap="round"/>
<path d="M109.99 170L109.99 110" stroke="url(#paint10_linear_37_30)" stroke-width="4" stroke-linecap="round"/>
<path d="M110 110H170" stroke="url(#paint11_linear_37_30)" stroke-width="4" stroke-linecap="round"/>
<path d="M50 170H110" stroke="#1434CB" stroke-width="6" stroke-linecap="round"/>
<path d="M110 170H170" stroke="#1434CB" stroke-width="6" stroke-linecap="round"/>
<path d="M50 50V110" stroke="#1434CB" stroke-width="6" stroke-linecap="round"/>
<path d="M50 110V170" stroke="#1434CB" stroke-width="6" stroke-linecap="round"/>
<path d="M170 50V110" stroke="#1434CB" stroke-width="6" stroke-linecap="round"/>
<path d="M170 110V170" stroke="#1434CB" stroke-width="6" stroke-linecap="round"/>
<path d="M110 110L170 50" stroke="url(#paint12_linear_37_30)" stroke-width="4" stroke-linecap="round"/>
<path d="M110 110L80 80L50 50" stroke="url(#paint13_linear_37_30)" stroke-width="4" stroke-linecap="round"/>
<path d="M50 170L110 110" stroke="url(#paint14_linear_37_30)" stroke-width="4" stroke-linecap="round"/>
<path d="M110 110L140 140L170 170" stroke="url(#paint15_linear_37_30)" stroke-width="4" stroke-linecap="round"/>
<path d="M170 68C179.941 68 188 59.9411 188 50C188 40.0589 179.941 32 170 32C160.059 32 152 40.0589 152 50C152 59.9411 160.059 68 170 68Z" fill="#F7B500"/>
<path d="M110 130C121.046 130 130 121.046 130 110C130 98.9543 121.046 90 110 90C98.9543 90 90 98.9543 90 110C90 121.046 98.9543 130 110 130Z" fill="#F7B600"/>
<path d="M50 120C55.5228 120 60 115.523 60 110C60 104.477 55.5228 100 50 100C44.4772 100 40 104.477 40 110C40 115.523 44.4772 120 50 120Z" fill="#1434CB"/>
<path d="M170 120C175.523 120 180 115.523 180 110C180 104.477 175.523 100 170 100C164.477 100 160 104.477 160 110C160 115.523 164.477 120 170 120Z" fill="#1434CB"/>
<path d="M50 188C59.9411 188 68 179.941 68 170C68 160.059 59.9411 152 50 152C40.0589 152 32 160.059 32 170C32 179.941 40.0589 188 50 188Z" fill="#1434CB"/>
<path d="M170 188C179.941 188 188 179.941 188 170C188 160.059 179.941 152 170 152C160.059 152 152 160.059 152 170C152 179.941 160.059 188 170 188Z" fill="#1434CB"/>
<path d="M110 180C115.523 180 120 175.523 120 170C120 164.477 115.523 160 110 160C104.477 160 100 164.477 100 170C100 175.523 104.477 180 110 180Z" fill="#1434CB"/>
<path d="M201.057 139V80.8182H240.261V90.9602H213.358V104.824H238.244V114.966H213.358V128.858H240.375V139H201.057ZM286.496 95.3636L271.24 139H257.604L242.348 95.3636H255.132L264.195 126.585H264.649L273.683 95.3636H286.496ZM307.169 139.852C302.68 139.852 298.817 138.943 295.578 137.125C292.358 135.288 289.877 132.693 288.135 129.341C286.393 125.97 285.521 121.983 285.521 117.381C285.521 112.892 286.393 108.953 288.135 105.562C289.877 102.172 292.33 99.5303 295.493 97.6364C298.675 95.7424 302.406 94.7955 306.686 94.7955C309.565 94.7955 312.245 95.2595 314.726 96.1875C317.226 97.0966 319.404 98.4697 321.26 100.307C323.135 102.144 324.593 104.455 325.635 107.239C326.677 110.004 327.197 113.242 327.197 116.955V120.278H290.351V112.778H315.805C315.805 111.036 315.427 109.492 314.669 108.148C313.911 106.803 312.86 105.752 311.516 104.994C310.19 104.218 308.646 103.83 306.885 103.83C305.048 103.83 303.419 104.256 301.999 105.108C300.597 105.941 299.499 107.068 298.703 108.489C297.908 109.89 297.5 111.453 297.482 113.176V120.307C297.482 122.466 297.879 124.331 298.675 125.903C299.489 127.475 300.635 128.688 302.112 129.54C303.589 130.392 305.341 130.818 307.368 130.818C308.713 130.818 309.944 130.629 311.061 130.25C312.179 129.871 313.135 129.303 313.93 128.545C314.726 127.788 315.332 126.86 315.749 125.761L326.942 126.5C326.374 129.189 325.209 131.538 323.447 133.545C321.705 135.534 319.451 137.087 316.686 138.205C313.94 139.303 310.768 139.852 307.169 139.852ZM343.197 113.773V139H331.095V95.3636H342.629V103.062H343.141C344.107 100.525 345.726 98.517 347.999 97.0398C350.271 95.5436 353.027 94.7955 356.266 94.7955C359.296 94.7955 361.938 95.4583 364.192 96.7841C366.446 98.1098 368.197 100.004 369.447 102.466C370.697 104.909 371.322 107.826 371.322 111.216V139H359.22V113.375C359.239 110.705 358.557 108.621 357.175 107.125C355.792 105.61 353.889 104.852 351.464 104.852C349.836 104.852 348.396 105.203 347.146 105.903C345.915 106.604 344.949 107.627 344.249 108.972C343.567 110.297 343.216 111.898 343.197 113.773ZM400.071 95.3636V104.455H373.793V95.3636H400.071ZM379.759 84.9091H391.861V125.591C391.861 126.708 392.031 127.58 392.372 128.205C392.713 128.811 393.187 129.237 393.793 129.483C394.418 129.729 395.137 129.852 395.952 129.852C396.52 129.852 397.088 129.805 397.656 129.71C398.224 129.597 398.66 129.511 398.963 129.455L400.866 138.46C400.26 138.65 399.408 138.867 398.31 139.114C397.211 139.379 395.876 139.54 394.304 139.597C391.387 139.71 388.83 139.322 386.634 138.432C384.455 137.542 382.76 136.159 381.548 134.284C380.336 132.409 379.74 130.042 379.759 127.182V84.9091Z" fill="black"/>
<path d="M405.119 139V80.8182H428.074C432.487 80.8182 436.246 81.661 439.352 83.3466C442.458 85.0133 444.826 87.3333 446.455 90.3068C448.102 93.2614 448.926 96.6705 448.926 100.534C448.926 104.398 448.093 107.807 446.426 110.761C444.759 113.716 442.345 116.017 439.182 117.665C436.038 119.312 432.231 120.136 427.761 120.136H413.131V110.278H425.773C428.14 110.278 430.091 109.871 431.625 109.057C433.178 108.223 434.333 107.078 435.091 105.619C435.867 104.142 436.256 102.447 436.256 100.534C436.256 98.6023 435.867 96.9167 435.091 95.4773C434.333 94.0189 433.178 92.892 431.625 92.0966C430.072 91.2822 428.102 90.875 425.716 90.875H417.42V139H405.119ZM452.689 139V95.3636H464.791V139H452.689ZM458.768 89.7386C456.969 89.7386 455.426 89.142 454.138 87.9489C452.869 86.7367 452.234 85.2879 452.234 83.6023C452.234 81.9356 452.869 80.5057 454.138 79.3125C455.426 78.1004 456.969 77.4943 458.768 77.4943C460.568 77.4943 462.102 78.1004 463.371 79.3125C464.659 80.5057 465.303 81.9356 465.303 83.6023C465.303 85.2879 464.659 86.7367 463.371 87.9489C462.102 89.142 460.568 89.7386 458.768 89.7386ZM480.599 95.3636L488.611 110.619L496.821 95.3636H509.236L496.594 117.182L509.577 139H497.219L488.611 123.915L480.145 139H467.645L480.599 117.182L468.099 95.3636H480.599ZM530.747 139.852C526.259 139.852 522.395 138.943 519.156 137.125C515.937 135.288 513.455 132.693 511.713 129.341C509.971 125.97 509.099 121.983 509.099 117.381C509.099 112.892 509.971 108.953 511.713 105.562C513.455 102.172 515.908 99.5303 519.071 97.6364C522.253 95.7424 525.984 94.7955 530.264 94.7955C533.143 94.7955 535.823 95.2595 538.304 96.1875C540.804 97.0966 542.982 98.4697 544.838 100.307C546.713 102.144 548.171 104.455 549.213 107.239C550.255 110.004 550.776 113.242 550.776 116.955V120.278H513.929V112.778H539.384C539.384 111.036 539.005 109.492 538.247 108.148C537.49 106.803 536.438 105.752 535.094 104.994C533.768 104.218 532.224 103.83 530.463 103.83C528.626 103.83 526.997 104.256 525.577 105.108C524.175 105.941 523.077 107.068 522.281 108.489C521.486 109.89 521.079 111.453 521.06 113.176V120.307C521.06 122.466 521.457 124.331 522.253 125.903C523.067 127.475 524.213 128.688 525.69 129.54C527.168 130.392 528.92 130.818 530.946 130.818C532.291 130.818 533.522 130.629 534.639 130.25C535.757 129.871 536.713 129.303 537.509 128.545C538.304 127.788 538.91 126.86 539.327 125.761L550.52 126.5C549.952 129.189 548.787 131.538 547.026 133.545C545.283 135.534 543.029 137.087 540.264 138.205C537.518 139.303 534.346 139.852 530.747 139.852ZM566.776 80.8182V139H554.673V80.8182H566.776ZM608.777 107.807L597.697 108.489C597.508 107.542 597.101 106.689 596.476 105.932C595.851 105.155 595.027 104.54 594.004 104.085C593 103.612 591.798 103.375 590.396 103.375C588.521 103.375 586.94 103.773 585.652 104.568C584.364 105.345 583.72 106.386 583.72 107.693C583.72 108.735 584.137 109.616 584.97 110.335C585.804 111.055 587.233 111.633 589.26 112.068L597.158 113.659C601.4 114.53 604.563 115.932 606.646 117.864C608.73 119.795 609.771 122.333 609.771 125.477C609.771 128.337 608.929 130.847 607.243 133.006C605.576 135.165 603.285 136.85 600.368 138.062C597.47 139.256 594.127 139.852 590.339 139.852C584.563 139.852 579.961 138.65 576.533 136.244C573.124 133.82 571.125 130.525 570.538 126.358L582.442 125.733C582.802 127.494 583.673 128.839 585.055 129.767C586.438 130.676 588.209 131.131 590.368 131.131C592.489 131.131 594.194 130.723 595.482 129.909C596.788 129.076 597.451 128.006 597.47 126.699C597.451 125.6 596.987 124.701 596.078 124C595.169 123.28 593.768 122.731 591.874 122.352L584.317 120.847C580.055 119.994 576.883 118.517 574.8 116.415C572.735 114.312 571.703 111.633 571.703 108.375C571.703 105.572 572.461 103.157 573.976 101.131C575.51 99.1042 577.66 97.5417 580.425 96.4432C583.209 95.3447 586.466 94.7955 590.197 94.7955C595.709 94.7955 600.046 95.9602 603.209 98.2898C606.391 100.619 608.247 103.792 608.777 107.807Z" fill="#1434CB"/>
<path d="M201.057 139V80.8182H240.261V90.9602H213.358V104.824H238.244V114.966H213.358V128.858H240.375V139H201.057ZM286.496 95.3636L271.24 139H257.604L242.348 95.3636H255.132L264.195 126.585H264.649L273.683 95.3636H286.496ZM307.169 139.852C302.68 139.852 298.817 138.943 295.578 137.125C292.358 135.288 289.877 132.693 288.135 129.341C286.393 125.97 285.521 121.983 285.521 117.381C285.521 112.892 286.393 108.953 288.135 105.562C289.877 102.172 292.33 99.5303 295.493 97.6364C298.675 95.7424 302.406 94.7955 306.686 94.7955C309.565 94.7955 312.245 95.2595 314.726 96.1875C317.226 97.0966 319.404 98.4697 321.26 100.307C323.135 102.144 324.593 104.455 325.635 107.239C326.677 110.004 327.197 113.242 327.197 116.955V120.278H290.351V112.778H315.805C315.805 111.036 315.427 109.492 314.669 108.148C313.911 106.803 312.86 105.752 311.516 104.994C310.19 104.218 308.646 103.83 306.885 103.83C305.048 103.83 303.419 104.256 301.999 105.108C300.597 105.941 299.499 107.068 298.703 108.489C297.908 109.89 297.5 111.453 297.482 113.176V120.307C297.482 122.466 297.879 124.331 298.675 125.903C299.489 127.475 300.635 128.688 302.112 129.54C303.589 130.392 305.341 130.818 307.368 130.818C308.713 130.818 309.944 130.629 311.061 130.25C312.179 129.871 313.135 129.303 313.93 128.545C314.726 127.788 315.332 126.86 315.749 125.761L326.942 126.5C326.374 129.189 325.209 131.538 323.447 133.545C321.705 135.534 319.451 137.087 316.686 138.205C313.94 139.303 310.768 139.852 307.169 139.852ZM343.197 113.773V139H331.095V95.3636H342.629V103.062H343.141C344.107 100.525 345.726 98.517 347.999 97.0398C350.271 95.5436 353.027 94.7955 356.266 94.7955C359.296 94.7955 361.938 95.4583 364.192 96.7841C366.446 98.1098 368.197 100.004 369.447 102.466C370.697 104.909 371.322 107.826 371.322 111.216V139H359.22V113.375C359.239 110.705 358.557 108.621 357.175 107.125C355.792 105.61 353.889 104.852 351.464 104.852C349.836 104.852 348.396 105.203 347.146 105.903C345.915 106.604 344.949 107.627 344.249 108.972C343.567 110.297 343.216 111.898 343.197 113.773ZM400.071 95.3636V104.455H373.793V95.3636H400.071ZM379.759 84.9091H391.861V125.591C391.861 126.708 392.031 127.58 392.372 128.205C392.713 128.811 393.187 129.237 393.793 129.483C394.418 129.729 395.137 129.852 395.952 129.852C396.52 129.852 397.088 129.805 397.656 129.71C398.224 129.597 398.66 129.511 398.963 129.455L400.866 138.46C400.26 138.65 399.408 138.867 398.31 139.114C397.211 139.379 395.876 139.54 394.304 139.597C391.387 139.71 388.83 139.322 386.634 138.432C384.455 137.542 382.76 136.159 381.548 134.284C380.336 132.409 379.74 130.042 379.759 127.182V84.9091Z" fill="black"/>
<path d="M405.119 139V80.8182H428.074C432.487 80.8182 436.246 81.661 439.352 83.3466C442.458 85.0133 444.826 87.3333 446.455 90.3068C448.102 93.2614 448.926 96.6705 448.926 100.534C448.926 104.398 448.093 107.807 446.426 110.761C444.759 113.716 442.345 116.017 439.182 117.665C436.038 119.312 432.231 120.136 427.761 120.136H413.131V110.278H425.773C428.14 110.278 430.091 109.871 431.625 109.057C433.178 108.223 434.333 107.078 435.091 105.619C435.867 104.142 436.256 102.447 436.256 100.534C436.256 98.6023 435.867 96.9167 435.091 95.4773C434.333 94.0189 433.178 92.892 431.625 92.0966C430.072 91.2822 428.102 90.875 425.716 90.875H417.42V139H405.119ZM452.689 139V95.3636H464.791V139H452.689ZM458.768 89.7386C456.969 89.7386 455.426 89.142 454.138 87.9489C452.869 86.7367 452.234 85.2879 452.234 83.6023C452.234 81.9356 452.869 80.5057 454.138 79.3125C455.426 78.1004 456.969 77.4943 458.768 77.4943C460.568 77.4943 462.102 78.1004 463.371 79.3125C464.659 80.5057 465.303 81.9356 465.303 83.6023C465.303 85.2879 464.659 86.7367 463.371 87.9489C462.102 89.142 460.568 89.7386 458.768 89.7386ZM480.599 95.3636L488.611 110.619L496.821 95.3636H509.236L496.594 117.182L509.577 139H497.219L488.611 123.915L480.145 139H467.645L480.599 117.182L468.099 95.3636H480.599ZM530.747 139.852C526.259 139.852 522.395 138.943 519.156 137.125C515.937 135.288 513.455 132.693 511.713 129.341C509.971 125.97 509.099 121.983 509.099 117.381C509.099 112.892 509.971 108.953 511.713 105.562C513.455 102.172 515.908 99.5303 519.071 97.6364C522.253 95.7424 525.984 94.7955 530.264 94.7955C533.143 94.7955 535.823 95.2595 538.304 96.1875C540.804 97.0966 542.982 98.4697 544.838 100.307C546.713 102.144 548.171 104.455 549.213 107.239C550.255 110.004 550.776 113.242 550.776 116.955V120.278H513.929V112.778H539.384C539.384 111.036 539.005 109.492 538.247 108.148C537.49 106.803 536.438 105.752 535.094 104.994C533.768 104.218 532.224 103.83 530.463 103.83C528.626 103.83 526.997 104.256 525.577 105.108C524.175 105.941 523.077 107.068 522.281 108.489C521.486 109.89 521.079 111.453 521.06 113.176V120.307C521.06 122.466 521.457 124.331 522.253 125.903C523.067 127.475 524.213 128.688 525.69 129.54C527.168 130.392 528.92 130.818 530.946 130.818C532.291 130.818 533.522 130.629 534.639 130.25C535.757 129.871 536.713 129.303 537.509 128.545C538.304 127.788 538.91 126.86 539.327 125.761L550.52 126.5C549.952 129.189 548.787 131.538 547.026 133.545C545.283 135.534 543.029 137.087 540.264 138.205C537.518 139.303 534.346 139.852 530.747 139.852ZM566.776 80.8182V139H554.673V80.8182H566.776ZM608.777 107.807L597.697 108.489C597.508 107.542 597.101 106.689 596.476 105.932C595.851 105.155 595.027 104.54 594.004 104.085C593 103.612 591.798 103.375 590.396 103.375C588.521 103.375 586.94 103.773 585.652 104.568C584.364 105.345 583.72 106.386 583.72 107.693C583.72 108.735 584.137 109.616 584.97 110.335C585.804 111.055 587.233 111.633 589.26 112.068L597.158 113.659C601.4 114.53 604.563 115.932 606.646 117.864C608.73 119.795 609.771 122.333 609.771 125.477C609.771 128.337 608.929 130.847 607.243 133.006C605.576 135.165 603.285 136.85 600.368 138.062C597.47 139.256 594.127 139.852 590.339 139.852C584.563 139.852 579.961 138.65 576.533 136.244C573.124 133.82 571.125 130.525 570.538 126.358L582.442 125.733C582.802 127.494 583.673 128.839 585.055 129.767C586.438 130.676 588.209 131.131 590.368 131.131C592.489 131.131 594.194 130.723 595.482 129.909C596.788 129.076 597.451 128.006 597.47 126.699C597.451 125.6 596.987 124.701 596.078 124C595.169 123.28 593.768 122.731 591.874 122.352L584.317 120.847C580.055 119.994 576.883 118.517 574.8 116.415C572.735 114.312 571.703 111.633 571.703 108.375C571.703 105.572 572.461 103.157 573.976 101.131C575.51 99.1042 577.66 97.5417 580.425 96.4432C583.209 95.3447 586.466 94.7955 590.197 94.7955C595.709 94.7955 600.046 95.9602 603.209 98.2898C606.391 100.619 608.247 103.792 608.777 107.807Z" fill="#1434CB"/>
<defs>
<linearGradient id="paint0_linear_37_30" x1="50" y1="110.5" x2="110" y2="110.5" gradientUnits="userSpaceOnUse">
<stop offset="0.3" stop-color="#1434CB"/>
<stop offset="0.7" stop-color="#F5F5F5" stop-opacity="0.5"/>
<stop offset="1" stop-color="#F7B600"/>
</linearGradient>
<linearGradient id="paint1_linear_37_30" x1="109.5" y1="50" x2="109.5" y2="110" gradientUnits="userSpaceOnUse">
<stop offset="0.15" stop-color="#1434CB"/>
<stop offset="0.3" stop-color="#F5F5F5" stop-opacity="0.5"/>
<stop offset="0.6" stop-color="#F7B600"/>
</linearGradient>
<linearGradient id="paint2_linear_37_30" x1="110.49" y1="170" x2="110.49" y2="110" gradientUnits="userSpaceOnUse">
<stop offset="0.1" stop-color="#1434CB"/>
<stop offset="0.5" stop-color="#F5F5F5" stop-opacity="0.5"/>
<stop offset="1" stop-color="#F7B600"/>
</linearGradient>
<linearGradient id="paint3_linear_37_30" x1="110" y1="110.5" x2="170" y2="110.5" gradientUnits="userSpaceOnUse">
<stop offset="0.4" stop-color="#F7B600"/>
<stop offset="0.7" stop-color="#F5F5F5" stop-opacity="0.5"/>
<stop offset="0.85" stop-color="#1434CB"/>
</linearGradient>
<linearGradient id="paint4_linear_37_30" x1="140" y1="50" x2="140" y2="110" gradientUnits="userSpaceOnUse">
<stop stop-color="#1434CB"/>
<stop offset="0.25" stop-color="#F5F5F5" stop-opacity="0.5"/>
<stop offset="0.7" stop-color="#F7B600"/>
</linearGradient>
<linearGradient id="paint5_linear_37_30" x1="80" y1="50" x2="80" y2="110" gradientUnits="userSpaceOnUse">
<stop offset="0.1" stop-color="#1434CB"/>
<stop offset="0.5" stop-color="white" stop-opacity="0.5"/>
<stop offset="1" stop-color="#F7B600"/>
</linearGradient>
<linearGradient id="paint6_linear_37_30" x1="80" y1="110" x2="80" y2="170" gradientUnits="userSpaceOnUse">
<stop offset="0.3" stop-color="#F7B600"/>
<stop offset="0.4" stop-color="#F5F5F5" stop-opacity="0.5"/>
<stop offset="0.7" stop-color="#1434CB"/>
</linearGradient>
<linearGradient id="paint7_linear_37_30" x1="140" y1="110" x2="140" y2="170" gradientUnits="userSpaceOnUse">
<stop offset="0.3" stop-color="#F7B600" stop-opacity="0.3"/>
<stop offset="0.4" stop-color="#F5F5F5" stop-opacity="0.5"/>
<stop offset="0.7" stop-color="#1434CB"/>
</linearGradient>
<linearGradient id="paint8_linear_37_30" x1="50" y1="110.5" x2="110" y2="110.5" gradientUnits="userSpaceOnUse">
<stop offset="0.3" stop-color="#1434CB"/>
<stop offset="0.7" stop-color="#F5F5F5" stop-opacity="0.5"/>
<stop offset="1" stop-color="#F7B600"/>
</linearGradient>
<linearGradient id="paint9_linear_37_30" x1="109.5" y1="50" x2="109.5" y2="110" gradientUnits="userSpaceOnUse">
<stop offset="0.15" stop-color="#1434CB"/>
<stop offset="0.3" stop-color="#F5F5F5" stop-opacity="0.5"/>
<stop offset="0.6" stop-color="#F7B600"/>
</linearGradient>
<linearGradient id="paint10_linear_37_30" x1="110.49" y1="170" x2="110.49" y2="110" gradientUnits="userSpaceOnUse">
<stop offset="0.1" stop-color="#1434CB"/>
<stop offset="0.5" stop-color="#F5F5F5" stop-opacity="0.5"/>
<stop offset="1" stop-color="#F7B600"/>
</linearGradient>
<linearGradient id="paint11_linear_37_30" x1="110" y1="110.5" x2="170" y2="110.5" gradientUnits="userSpaceOnUse">
<stop offset="0.4" stop-color="#F7B600"/>
<stop offset="0.7" stop-color="#F5F5F5" stop-opacity="0.5"/>
<stop offset="0.85" stop-color="#1434CB"/>
</linearGradient>
<linearGradient id="paint12_linear_37_30" x1="140" y1="50" x2="140" y2="110" gradientUnits="userSpaceOnUse">
<stop stop-color="#1434CB"/>
<stop offset="0.25" stop-color="#F5F5F5" stop-opacity="0.5"/>
<stop offset="0.7" stop-color="#F7B600"/>
</linearGradient>
<linearGradient id="paint13_linear_37_30" x1="80" y1="50" x2="80" y2="110" gradientUnits="userSpaceOnUse">
<stop offset="0.1" stop-color="#1434CB"/>
<stop offset="0.5" stop-color="white" stop-opacity="0.5"/>
<stop offset="1" stop-color="#F7B600"/>
</linearGradient>
<linearGradient id="paint14_linear_37_30" x1="80" y1="110" x2="80" y2="170" gradientUnits="userSpaceOnUse">
<stop offset="0.3" stop-color="#F7B600"/>
<stop offset="0.4" stop-color="#F5F5F5" stop-opacity="0.5"/>
<stop offset="0.7" stop-color="#1434CB"/>
</linearGradient>
<linearGradient id="paint15_linear_37_30" x1="140" y1="110" x2="140" y2="170" gradientUnits="userSpaceOnUse">
<stop offset="0.3" stop-color="#F7B600" stop-opacity="0.3"/>
<stop offset="0.4" stop-color="#F5F5F5" stop-opacity="0.5"/>
<stop offset="0.7" stop-color="#1434CB"/>
</linearGradient>
</defs>
</svg>
