<svg width="220" height="220" viewBox="0 0 220 220" fill="none" xmlns="http://www.w3.org/2000/svg">
<path d="M50 50H110" stroke="#1434CB" stroke-width="6" stroke-linecap="round"/>
<path d="M110 50H170" stroke="#1434CB" stroke-width="6" stroke-linecap="round"/>
<path d="M50 110H110" stroke="url(#paint0_linear_6_9)" stroke-width="4" stroke-linecap="round"/>
<path d="M110 50L110 110" stroke="url(#paint1_linear_6_9)" stroke-width="4" stroke-linecap="round"/>
<path d="M109.99 170L109.99 110" stroke="url(#paint2_linear_6_9)" stroke-width="4" stroke-linecap="round"/>
<path d="M110 110H170" stroke="url(#paint3_linear_6_9)" stroke-width="4" stroke-linecap="round"/>
<path d="M50 170H110" stroke="#1434CB" stroke-width="6" stroke-linecap="round"/>
<path d="M110 170H170" stroke="#1434CB" stroke-width="6" stroke-linecap="round"/>
<path d="M50 50V110" stroke="#1434CB" stroke-width="6" stroke-linecap="round"/>
<path d="M50 110V170" stroke="#1434CB" stroke-width="6" stroke-linecap="round"/>
<path d="M170 50V110" stroke="#1434CB" stroke-width="6" stroke-linecap="round"/>
<path d="M170 110V170" stroke="#1434CB" stroke-width="6" stroke-linecap="round"/>
<path d="M110 110L170 50" stroke="url(#paint4_linear_6_9)" stroke-width="4" stroke-linecap="round"/>
<path d="M110 110L80 80L50 50" stroke="url(#paint5_linear_6_9)" stroke-width="4" stroke-linecap="round"/>
<path d="M50 170L110 110" stroke="url(#paint6_linear_6_9)" stroke-width="4" stroke-linecap="round"/>
<path d="M110 110L140 140L170 170" stroke="url(#paint7_linear_6_9)" stroke-width="4" stroke-linecap="round"/>
<path d="M50 68C59.9411 68 68 59.9411 68 50C68 40.0589 59.9411 32 50 32C40.0589 32 32 40.0589 32 50C32 59.9411 40.0589 68 50 68Z" fill="#1434CB"/>
<path d="M170 68C179.941 68 188 59.9411 188 50C188 40.0589 179.941 32 170 32C160.059 32 152 40.0589 152 50C152 59.9411 160.059 68 170 68Z" fill="#F7B500"/>
<path d="M50 188C59.9411 188 68 179.941 68 170C68 160.059 59.9411 152 50 152C40.0589 152 32 160.059 32 170C32 179.941 40.0589 188 50 188Z" fill="#1434CB"/>
<path d="M170 188C179.941 188 188 179.941 188 170C188 160.059 179.941 152 170 152C160.059 152 152 160.059 152 170C152 179.941 160.059 188 170 188Z" fill="#1434CB"/>
<path d="M110 130C121.046 130 130 121.046 130 110C130 98.9543 121.046 90 110 90C98.9543 90 90 98.9543 90 110C90 121.046 98.9543 130 110 130Z" fill="#F7B600"/>
<path d="M110 60C115.523 60 120 55.5228 120 50C120 44.4772 115.523 40 110 40C104.477 40 100 44.4772 100 50C100 55.5228 104.477 60 110 60Z" fill="#1434CB"/>
<path d="M50 120C55.5228 120 60 115.523 60 110C60 104.477 55.5228 100 50 100C44.4772 100 40 104.477 40 110C40 115.523 44.4772 120 50 120Z" fill="#1434CB"/>
<path d="M170 120C175.523 120 180 115.523 180 110C180 104.477 175.523 100 170 100C164.477 100 160 104.477 160 110C160 115.523 164.477 120 170 120Z" fill="#1434CB"/>
<path d="M110 180C115.523 180 120 175.523 120 170C120 164.477 115.523 160 110 160C104.477 160 100 164.477 100 170C100 175.523 104.477 180 110 180Z" fill="#1434CB"/>
<defs>
<linearGradient id="paint0_linear_6_9" x1="50" y1="110.5" x2="110" y2="110.5" gradientUnits="userSpaceOnUse">
<stop offset="0.3" stop-color="#1434CB"/>
<stop offset="0.7" stop-color="#F5F5F5" stop-opacity="0.5"/>
<stop offset="1" stop-color="#F7B600"/>
</linearGradient>
<linearGradient id="paint1_linear_6_9" x1="109.5" y1="50" x2="109.5" y2="110" gradientUnits="userSpaceOnUse">
<stop offset="0.15" stop-color="#1434CB"/>
<stop offset="0.3" stop-color="#F5F5F5" stop-opacity="0.5"/>
<stop offset="0.6" stop-color="#F7B600"/>
</linearGradient>
<linearGradient id="paint2_linear_6_9" x1="110.49" y1="170" x2="110.49" y2="110" gradientUnits="userSpaceOnUse">
<stop offset="0.1" stop-color="#1434CB"/>
<stop offset="0.5" stop-color="#F5F5F5" stop-opacity="0.5"/>
<stop offset="1" stop-color="#F7B600"/>
</linearGradient>
<linearGradient id="paint3_linear_6_9" x1="110" y1="110.5" x2="170" y2="110.5" gradientUnits="userSpaceOnUse">
<stop offset="0.4" stop-color="#F7B600"/>
<stop offset="0.7" stop-color="#F5F5F5" stop-opacity="0.5"/>
<stop offset="0.85" stop-color="#1434CB"/>
</linearGradient>
<linearGradient id="paint4_linear_6_9" x1="140" y1="50" x2="140" y2="110" gradientUnits="userSpaceOnUse">
<stop stop-color="#1434CB"/>
<stop offset="0.25" stop-color="#F5F5F5" stop-opacity="0.5"/>
<stop offset="0.7" stop-color="#F7B600"/>
</linearGradient>
<linearGradient id="paint5_linear_6_9" x1="80" y1="50" x2="80" y2="110" gradientUnits="userSpaceOnUse">
<stop offset="0.1" stop-color="#1434CB"/>
<stop offset="0.5" stop-color="white" stop-opacity="0.5"/>
<stop offset="1" stop-color="#F7B600"/>
</linearGradient>
<linearGradient id="paint6_linear_6_9" x1="80" y1="110" x2="80" y2="170" gradientUnits="userSpaceOnUse">
<stop offset="0.3" stop-color="#F7B600"/>
<stop offset="0.4" stop-color="#F5F5F5" stop-opacity="0.5"/>
<stop offset="0.7" stop-color="#1434CB"/>
</linearGradient>
<linearGradient id="paint7_linear_6_9" x1="140" y1="110" x2="140" y2="170" gradientUnits="userSpaceOnUse">
<stop offset="0.3" stop-color="#F7B600" stop-opacity="0.3"/>
<stop offset="0.4" stop-color="#F5F5F5" stop-opacity="0.5"/>
<stop offset="0.7" stop-color="#1434CB"/>
</linearGradient>
</defs>
</svg>
